<?xml version="1.0" encoding="UTF-8"?>
<svg version="1.1" xmlns="http://www.w3.org/2000/svg" width="1024" height="1024">
<path d="M0 0 C337.92 0 675.84 0 1024 0 C1024 337.92 1024 675.84 1024 1024 C686.08 1024 348.16 1024 0 1024 C0 686.08 0 348.16 0 0 Z " fill="#225A66" transform="translate(0,0)"/>
<path d="M0 0 C258.52417462 0 258.52417462 0 299.75 40.3125 C324.68422585 65.51304602 334.48299173 100.59487062 334.3125 135.25 C334.30976578 136.40653076 334.30976578 136.40653076 334.30697632 137.58642578 C334.26161762 148.98785945 333.72199686 159.89768211 331 171 C330.6559941 172.55202663 330.31225582 174.10411261 329.96875 175.65625 C322.73557256 206.80898155 304.35109934 234.86799272 277 252 C252.50909091 267 252.50909091 267 243 267 C250.27502486 278.99004437 257.57521793 290.96317309 264.96826172 302.88085938 C269.26447773 309.80733289 273.54219337 316.74502448 277.8125 323.6875 C278.48394043 324.77909424 279.15538086 325.87068848 279.84716797 326.99536133 C281.21540332 329.22000824 282.58356704 331.44469921 283.95166016 333.66943359 C287.29993688 339.11367568 290.65004759 344.5567889 294 350 C295.33334242 352.16666108 296.66667574 354.33332775 298 356.5 C298.66 357.5725 299.32 358.645 300 359.75 C306 369.5 306 369.5 308.00024414 372.75048828 C309.33265469 374.91559442 310.6651741 377.08063356 311.99780273 379.24560547 C315.34615382 384.68560214 318.69256284 390.12677586 322.03515625 395.5703125 C323.37746383 397.75529455 324.7199109 399.94019092 326.0625 402.125 C326.71347656 403.18452881 327.36445313 404.24405762 328.03515625 405.33569336 C331.44814608 410.88222507 334.87910518 416.41677132 338.33984375 421.93359375 C339.03779053 423.04653809 339.7357373 424.15948242 340.45483398 425.30615234 C341.79460778 427.43936267 343.13649028 429.57125041 344.48071289 431.70166016 C345.07489014 432.64702637 345.66906738 433.59239258 346.28125 434.56640625 C346.80783203 435.40115479 347.33441406 436.23590332 347.87695312 437.09594727 C349 439 349 439 349 440 C335.66626643 440.48804124 322.33467651 440.86039811 308.9938097 441.08805561 C302.79741938 441.19737056 296.60716413 441.34537565 290.41430664 441.58422852 C284.42904547 441.81361129 278.4496515 441.93818306 272.46033287 441.9924221 C270.18423685 442.03102678 267.90843927 442.10643982 265.63486671 442.22033119 C251.17564134 442.91537258 251.17564134 442.91537258 245 440 C239.48954689 434.91866232 236.28472604 428.26481654 233.1978426 421.5365715 C231.54073272 418.02744793 229.54671232 414.83799866 227.46875 411.5625 C226.14513061 409.37542514 224.82220743 407.18792876 223.5 405 C217.49016447 395.07474577 211.42441614 385.18605505 205.3046875 375.328125 C195.81954319 360.04810529 186.42182536 344.71449705 177.08496094 329.34350586 C172.71990888 322.16460314 168.31281559 315.01258682 163.8762207 307.87768555 C158.53536393 299.28071309 153.27825505 290.63714463 148 282 C129.19 281.67 110.38 281.34 91 281 C91 333.47 91 385.94 91 440 C60.97 440 30.94 440 0 440 C0 294.8 0 149.6 0 0 Z " fill="#F4F5F5" transform="translate(159,272)"/>
<path d="M0 0 C1.31739609 0.22062264 2.63509004 0.43947674 3.953125 0.65625 C41.7255803 7.4070718 77.87432913 24.95491889 100.296875 56.91796875 C110.51735731 72.01971271 123.31417219 95.36627175 123 114 C105.63840962 118.41525189 88.23574071 122.64795487 70.8125 126.8125 C69.8003241 127.0546524 68.78814819 127.29680481 67.74530029 127.54629517 C64.81611699 128.24671593 61.8866435 128.94590698 58.95703125 129.64453125 C58.0860228 129.85263428 57.21501434 130.0607373 56.31761169 130.27514648 C53.8796065 130.85533471 51.44011117 131.42874122 49 132 C48.18220062 132.19492035 47.36440125 132.3898407 46.52182007 132.59066772 C45.33672348 132.86615952 45.33672348 132.86615952 44.12768555 133.1472168 C43.42862595 133.31158737 42.72956635 133.47595795 42.00932312 133.64530945 C40 134 40 134 36 134 C35.82984375 133.43192627 35.6596875 132.86385254 35.484375 132.27856445 C31.91226343 120.53026002 28.30610461 110.00258445 21 100 C20.50886719 99.3090625 20.01773438 98.618125 19.51171875 97.90625 C9.31858717 84.8131007 -9.01882714 78.01014625 -25 76 C-29.7425397 75.77175111 -34.48327642 75.72994327 -39.23046875 75.70483398 C-40.72926326 75.69338665 -42.22801937 75.67305137 -43.7265625 75.64331055 C-61.15682629 75.29878568 -80.29534886 78.69732487 -93.48046875 91.21484375 C-103.08834306 102.50224365 -106.11964761 113.39206033 -105.20263672 127.95654297 C-103.99475053 140.13727477 -96.96478465 149.84235977 -87.9375 157.6875 C-61.42115478 177.96048383 -24.07748389 185.76562379 7.32226562 195.68212891 C67.57496466 214.7151832 67.57496466 214.7151832 89 233 C89.80824219 233.67546875 90.61648438 234.3509375 91.44921875 235.046875 C111.32968281 252.21775055 124.51948397 276.75111828 127 303 C127.13818358 305.87972633 127.16368647 308.75397039 127.16796875 311.63671875 C127.17129715 312.43801712 127.17462555 313.23931549 127.17805481 314.06489563 C127.1830866 315.75150993 127.1854643 317.43813406 127.18530273 319.12475586 C127.18747936 321.66342187 127.20564814 324.20164551 127.22460938 326.74023438 C127.33673147 358.33179542 117.02946897 386.17922829 94.93359375 409.09375 C68.52044286 435.63998697 32.45071376 449.18626165 -4 455 C-4.67708008 455.11569336 -5.35416016 455.23138672 -6.05175781 455.35058594 C-54.36240405 463.35092391 -112.96551194 454.69275776 -153.390625 425.97265625 C-154.25171875 425.32167969 -155.1128125 424.67070313 -156 424 C-156.88171875 423.33871094 -157.7634375 422.67742187 -158.671875 421.99609375 C-185.37327652 401.04398245 -201.37485363 373.60825258 -211.0625 341.375 C-211.27874023 340.65836182 -211.49498047 339.94172363 -211.71777344 339.20336914 C-213.12712772 334.25425543 -213.12712772 334.25425543 -212 332 C-209.56328591 331.24213454 -207.17839393 330.60897456 -204.69799805 330.02880859 C-203.93374512 329.8431987 -203.16949219 329.65758881 -202.38208008 329.46635437 C-199.84385235 328.85220269 -197.30292527 328.25013467 -194.76171875 327.6484375 C-193.00138803 327.22590632 -191.24120191 326.80277231 -189.4811554 326.37905884 C-185.78593534 325.49134144 -182.08942501 324.60928286 -178.3918457 323.73144531 C-173.65164771 322.60585903 -168.91424097 321.46901988 -164.1776762 320.32825279 C-160.5402994 319.45306281 -156.90181665 318.58254955 -153.26294899 317.71358109 C-151.51596802 317.29606956 -149.76926067 316.87741142 -148.02283287 316.45759201 C-145.57967429 315.87130849 -143.13517157 315.29101064 -140.69018555 314.71240234 C-139.96742935 314.5378804 -139.24467316 314.36335846 -138.50001526 314.18354797 C-135.19925803 313.40877192 -132.41786777 313 -129 313 C-128.8047876 313.53254395 -128.6095752 314.06508789 -128.40844727 314.61376953 C-119.022612 339.90572458 -105.96037982 359.04890733 -80.82250977 370.67504883 C-73.79702058 373.72247823 -66.46045308 375.38833418 -59 377 C-58.41307373 377.1750708 -57.82614746 377.3501416 -57.22143555 377.53051758 C-33.77885759 382.48491668 -4.6220605 377.78424584 15.75 365.75 C25.80006761 359.04512781 33.24150224 349.15828043 35.71484375 337.17578125 C37.49293044 323.60873624 34.18521536 310.99945794 26 300 C9.79722867 280.02214999 -18.59300232 274.92209012 -42.07324219 268.42645264 C-70.95962238 260.42896299 -100.05003002 252.3601757 -127 239 C-127.72638672 238.64760254 -128.45277344 238.29520508 -129.20117188 237.93212891 C-159.11216794 223.33017298 -184.12428953 201.39065361 -195.34375 169.21484375 C-205.91532991 137.42429491 -203.82339837 98.78885867 -188.89453125 68.58203125 C-171.99184761 36.41777465 -142.6484818 16.7956081 -108.75 5.8125 C-98.98001511 2.78108584 -89.09651092 0.61544175 -79 -1 C-77.89591797 -1.17789062 -77.89591797 -1.17789062 -76.76953125 -1.359375 C-51.88818557 -5.11167848 -24.68181757 -4.63197649 0 0 Z " fill="#F5F5F5" transform="translate(744,265)"/>
<path d="M0 0 C14.52 -0.061875 29.04 -0.12375 44 -0.1875 C48.55296875 -0.21481201 53.1059375 -0.24212402 57.796875 -0.27026367 C63.4375 -0.28381348 63.4375 -0.28381348 66.09375 -0.28633118 C67.91473604 -0.29088155 69.73571413 -0.30131272 71.55664062 -0.31672668 C94.37735304 -0.49992837 116.83460906 2.40426838 134.25 18.75 C149.5684061 35.10216357 151.84219896 54.63503594 151.17480469 76.06103516 C150.20817531 92.31282915 142.96734012 107.98056801 131 119 C113.8163858 133.85363261 90.19709896 134.47585902 68.65234375 134.29296875 C66.88253057 134.28854256 65.11271342 134.28549151 63.34289551 134.28381348 C56.87436936 134.26826245 50.40592799 134.22638007 43.9375 134.1875 C29.438125 134.125625 14.93875 134.06375 0 134 C0 89.78 0 45.56 0 0 Z " fill="#225A65" transform="translate(250,345)"/>
<path d="M0 0 C5.08938811 1.59043379 8.87456643 4.7446951 13 8 C12.67 8.66 12.34 9.32 12 10 C9.99426318 8.71656721 7.99563881 7.4239631 6 6.125 C5.42765625 5.76019531 4.8553125 5.39539063 4.265625 5.01953125 C2.80818084 4.06525233 1.39962775 3.03722413 0 2 C0 1.34 0 0.68 0 0 Z " fill="#E8EDEF" transform="translate(585,685)"/>
<path d="M0 0 C0 0.66 0 1.32 0 2 C-4.38461538 5 -4.38461538 5 -7 5 C-7.33 4.01 -7.66 3.02 -8 2 C-5.09399739 0.74335022 -3.20395416 0 0 0 Z " fill="#ECF0F1" transform="translate(539,596)"/>
<path d="M0 0 C2.46800047 1.15173355 4.04783565 2.04783565 6 4 C5.67 4.99 5.34 5.98 5 7 C3.29115995 5.37660195 1.62553283 3.70680947 0 2 C0 1.34 0 0.68 0 0 Z " fill="#E3EAEB" transform="translate(764,557)"/>
</svg>
